<svg id="Layer_1" data-name="Layer 1" xmlns="http://www.w3.org/2000/svg" viewBox="0 0 512 512"><title>png</title><path d="M128,0A32.09,32.09,0,0,0,96,32V480a32.09,32.09,0,0,0,32,32H448a32.09,32.09,0,0,0,32-32V128L352,0H128Z" style="fill:#e2e5e7"></path><path d="M384,128h96L352,0V96A32.09,32.09,0,0,0,384,128Z" style="fill:#b0b7bd"></path><polygon points="480 224 384 128 480 128 480 224" style="fill:#cad1d8"></polygon><path d="M416,416a16,16,0,0,1-16,16H48a16,16,0,0,1-16-16V256a16,16,0,0,1,16-16H400a16,16,0,0,1,16,16V416Z" style="fill:#a066aa"></path><path d="M400,432H96v16H400a16,16,0,0,0,16-16V416A16,16,0,0,1,400,432Z" style="fill:#cad1d8"></path><path d="M94.8,293.6a3.74,3.74,0,0,1,.9-2.6,3.38,3.38,0,0,1,2.5-1h34.7a28,28,0,0,1,11.6,2.4,29.13,29.13,0,0,1,15.1,16,30.6,30.6,0,0,1,2.2,11.2,29.47,29.47,0,0,1-2.1,11,30.51,30.51,0,0,1-5.9,9.4,28.51,28.51,0,0,1-9.1,6.5,27.09,27.09,0,0,1-11.4,2.4H113.2v29.7q0,3.3-3.3,3.3H98.1a3.74,3.74,0,0,1-2.5-.8,3.24,3.24,0,0,1-.9-2.4V293.6h0.1Zm48.5,26a12.75,12.75,0,0,0-1-5,13,13,0,0,0-2.7-4.3,12.08,12.08,0,0,0-4.1-3,11.3,11.3,0,0,0-5.2-1.1H113.1V333h17.2a12.74,12.74,0,0,0,5.2-1.1,11.18,11.18,0,0,0,4.1-3,12.06,12.06,0,0,0,2.7-4.3A12.41,12.41,0,0,0,143.3,319.6Z" style="fill:#fff"></path><path d="M179,292.8a2.57,2.57,0,0,1,2.7-2.7h14.6a5.34,5.34,0,0,1,2,.5,3.64,3.64,0,0,1,1.6,1.4l40.7,57.5V292a3.09,3.09,0,0,1,1.2-1.5,2.82,2.82,0,0,1,1.5-.4h12.5a3.46,3.46,0,0,1,2,.7,2.43,2.43,0,0,1,1.1,2v86.6q0,2.7-3,2.7H242.7a1.76,1.76,0,0,1-1.3-.6c-0.4-.4-0.8-0.9-1.3-1.5L197,318v61.3q0.15,2.7-2.7,2.7H181.8a2.39,2.39,0,0,1-2.7-2.7V292.8H179Z" style="fill:#fff"></path><path d="M343.8,311.7a29.63,29.63,0,0,0-17.8-5.8,27.68,27.68,0,0,0-11.6,2.4,28.51,28.51,0,0,0-9.1,6.5,27.89,27.89,0,0,0-6,9.6,32.93,32.93,0,0,0-2.1,11.8,32,32,0,0,0,2.1,11.7A28.29,28.29,0,0,0,326,366.3a38.18,38.18,0,0,0,5.7-.4c2-.2,4-0.6,6-1V344.3a2.88,2.88,0,0,1,.7-2,2.63,2.63,0,0,1,2-.8h11.2a3.47,3.47,0,0,1,2,.7,2.43,2.43,0,0,1,1.1,2V373a2.88,2.88,0,0,1-1.8,2.7,42.6,42.6,0,0,1-12.6,5.8,54.7,54.7,0,0,1-14.2,1.9,47.32,47.32,0,0,1-12.6-1.7,45.23,45.23,0,0,1-11.3-4.8,49.17,49.17,0,0,1-9.6-7.4,51.69,51.69,0,0,1-7.4-9.5,45.23,45.23,0,0,1-4.8-11.3,47.54,47.54,0,0,1,0-25.2,45.23,45.23,0,0,1,4.8-11.3,49.17,49.17,0,0,1,7.4-9.6,45.58,45.58,0,0,1,9.6-7.4,54.09,54.09,0,0,1,11.3-4.8,47.32,47.32,0,0,1,12.6-1.7,46.06,46.06,0,0,1,14,2.1,49.61,49.61,0,0,1,12.5,6,3.81,3.81,0,0,1,1.5,1.6,2.63,2.63,0,0,1-.2,2.4l-6,10.2a3.07,3.07,0,0,1-1.9,1.4A2.88,2.88,0,0,1,343.8,311.7Z" style="fill:#fff"></path></svg>