<svg id="Layer_1" data-name="Layer 1" xmlns="http://www.w3.org/2000/svg" viewBox="0 0 512 512">

                <path d="M128,0A32.09,32.09,0,0,0,96,32V480a32.09,32.09,0,0,0,32,32H448a32.09,32.09,0,0,0,32-32V128L352,0H128Z" style="fill:#e2e5e7"></path>
                <path d="M384,128h96L352,0V96A32.09,32.09,0,0,0,384,128Z" style="fill:#b0b7bd"></path>
                <polygon points="480 224 384 128 480 128 480 224" style="fill:#cad1d8"></polygon>
                <path d="M416,416a16,16,0,0,1-16,16H48a16,16,0,0,1-16-16V256a16,16,0,0,1,16-16H400a16,16,0,0,1,16,16V416Z" style="fill:#ef435d"></path>
                <path d="M400,432H96v16H400a16,16,0,0,0,16-16V416A16,16,0,0,1,400,432Z" style="fill:#cad1d8"></path>
                <circle cx="229.13" cy="385.54" r="13.16" style="fill:#fff"></circle>
                <path d="M238.88,346.41v4.29a9.75,9.75,0,0,1-19.5,0v-14a9.75,9.75,0,0,1,9.75-9.75h9.75a14.62,14.62,0,0,0,0-29.24H204.76a9.75,9.75,0,0,1,0-19.5h34.12c20.29,0,36.73,13.81,36.73,34.1S259.17,349,238.88,346.41Z" style="fill:#fff"></path>
            </svg>