<svg width="12" height="9" viewBox="0 0 12 9" fill="none" xmlns="http://www.w3.org/2000/svg">
<path fill-rule="evenodd" clip-rule="evenodd" d="M7.77505 1.63244C7.54809 1.40548 7.54809 1.0375 7.77505 0.810541C8.00201 0.583579 8.36999 0.583579 8.59695 0.810541L11.8298 4.04335C11.9459 4.15951 12.0026 4.31261 11.9999 4.46484C12.0028 4.61729 11.9461 4.77067 11.8298 4.887L8.59696 8.11981C8.37 8.34677 8.00203 8.34677 7.77506 8.11981C7.5481 7.89284 7.5481 7.52487 7.77506 7.29791L10.0654 5.0076H0.581171C0.260199 5.0076 0 4.7474 0 4.42642C0 4.10545 0.260199 3.84525 0.581171 3.84525H9.98787L7.77505 1.63244Z" fill="#222222"/>
</svg>
