<svg id="Layer_1" data-name="Layer 1" xmlns="http://www.w3.org/2000/svg" viewBox="0 0 512 512"><title>txt</title><path d="M128,0A32.09,32.09,0,0,0,96,32V480a32.09,32.09,0,0,0,32,32H448a32.09,32.09,0,0,0,32-32V128L352,0H128Z" style="fill:#e2e5e7"></path><path d="M384,128h96L352,0V96A32.09,32.09,0,0,0,384,128Z" style="fill:#b0b7bd"></path><polygon points="480 224 384 128 480 128 480 224" style="fill:#cad1d8"></polygon><path d="M416,416a16,16,0,0,1-16,16H48a16,16,0,0,1-16-16V256a16,16,0,0,1,16-16H400a16,16,0,0,1,16,16V416Z" style="fill:#576d7e"></path><path d="M400,432H96v16H400a16,16,0,0,0,16-16V416A16,16,0,0,1,400,432Z" style="fill:#cad1d8"></path><path d="M103.3,297.1a2.46,2.46,0,0,1,.9-1.9,3.29,3.29,0,0,1,2.2-.8h63.3a3.52,3.52,0,0,1,2.1.7,2.87,2.87,0,0,1,1.1,2V308a3.57,3.57,0,0,1-.8,2.3,3,3,0,0,1-2.4,1H147.2v72a3.55,3.55,0,0,1-.2,1,8.79,8.79,0,0,1-.6,1,2.36,2.36,0,0,1-.9.8,2.28,2.28,0,0,1-1.1.3H132a2.24,2.24,0,0,1-1-.3,3.59,3.59,0,0,1-1-.7,3.92,3.92,0,0,1-.8-1,2.61,2.61,0,0,1-.3-1.1v-72H106.4a3.1,3.1,0,0,1-2.2-.9,3.24,3.24,0,0,1-.9-2.4V297.1Z" style="fill:#fff"></path><path d="M266.6,382.2c0.3,0.5.6,1,.8,1.4a2.66,2.66,0,0,1,.3,1.2c0,1.1-.7,1.7-2,1.7H251a3.41,3.41,0,0,1-2.2-.7,7.28,7.28,0,0,1-1.7-1.8c-3.2-4.8-6.5-9.5-9.7-14.3s-6.5-9.6-9.7-14.3c-3.2,4.8-6.4,9.6-9.6,14.3s-6.4,9.5-9.6,14.3a7.69,7.69,0,0,1-1.8,1.8,3.6,3.6,0,0,1-2.2.7H189.8c-1.4,0-2.1-.6-2.1-1.7a2.92,2.92,0,0,1,.6-1.5c0.4-.7.8-1.3,1.1-1.8l28-41.5c-1.9-2.9-3.9-5.8-5.9-8.8s-4.1-6.2-6.4-9.5-4.7-6.9-7.3-10.7-5.4-8-8.6-12.6a4.85,4.85,0,0,1-.9-2.3,1.44,1.44,0,0,1,.8-1.3,5.62,5.62,0,0,1,2-.3H205a3.34,3.34,0,0,1,2.7,1,18.25,18.25,0,0,1,2.1,2.7l17.9,26.5,18.6-27.4a5.89,5.89,0,0,1,4.5-2.8H264a6.08,6.08,0,0,1,2.2.3,1.39,1.39,0,0,1,.8,1.4,3.71,3.71,0,0,1-.2.9,4.45,4.45,0,0,1-.6,1.2L238,340.1Z" style="fill:#fff"></path><path d="M274.2,297.1a2.46,2.46,0,0,1,.9-1.9,3.29,3.29,0,0,1,2.2-.8h63.3a3.52,3.52,0,0,1,2.1.7,2.87,2.87,0,0,1,1.1,2V308a3.57,3.57,0,0,1-.8,2.3,3,3,0,0,1-2.4,1H318.1v72a3.55,3.55,0,0,1-.2,1,8.79,8.79,0,0,1-.6,1,2.36,2.36,0,0,1-.9.8,2.28,2.28,0,0,1-1.1.3H302.9a2.24,2.24,0,0,1-1-.3,3.59,3.59,0,0,1-1-.7,3.92,3.92,0,0,1-.8-1,2.61,2.61,0,0,1-.3-1.1v-72H277.3a3.1,3.1,0,0,1-2.2-.9,3.24,3.24,0,0,1-.9-2.4V297.1h0Z" style="fill:#fff"></path></svg>