<svg width="16" height="16" viewBox="0 0 16 16" fill="none" xmlns="http://www.w3.org/2000/svg">
<path d="M15.7864 7.63122C14.1814 4.85792 11.1979 3.13519 8 3.13519C4.80192 3.13519 1.81863 4.85773 0.213257 7.63122L0 8.00001L0.213448 8.36899C1.81843 11.1421 4.80192 12.8648 8 12.8648C11.1979 12.8648 14.1814 11.1423 15.7866 8.36899L16 8.00001L15.7864 7.63122ZM8.07997 10.6157C6.50624 10.6157 5.22575 9.33535 5.22575 7.76144C5.22575 6.18771 6.50624 4.90721 8.07997 4.90721C9.6537 4.90721 10.9342 6.18771 10.9342 7.76144C10.9342 9.33535 9.6537 10.6157 8.07997 10.6157ZM1.71641 8.00001C2.3953 6.96978 3.31085 6.1365 4.36524 5.55292C3.97862 6.20056 3.75232 6.95424 3.75232 7.76144C3.75232 8.91402 4.20779 9.95882 4.94441 10.7355C3.64646 10.1548 2.5167 9.21453 1.71641 8.00001ZM11.3365 10.6017C12.0011 9.84088 12.407 8.84862 12.407 7.76124C12.407 7.01369 12.2168 6.31025 11.8818 5.69618C12.8322 6.26998 13.6586 7.05109 14.2832 7.99981C13.5416 9.12555 12.5164 10.0156 11.3365 10.6017ZM9.20302 7.70544C9.20302 8.36975 8.66413 8.90826 8.00019 8.90826C7.33568 8.90826 6.79717 8.36956 6.79717 7.70544C6.79717 7.04093 7.33587 6.50242 8.00019 6.50242C8.66432 6.50242 9.20302 7.04093 9.20302 7.70544Z" fill="#9B9B9B"/>
</svg>
