<svg width="14" height="20" viewBox="0 0 14 20" fill="none" xmlns="http://www.w3.org/2000/svg">
<path d="M3.08407 19.0358C4.9379 20.0157 6.48401 19.3074 7.627 17.104L13.2538 6.25326C14.2451 4.34484 13.5038 1.98535 11.6055 1.00803L11.4395 0.919613C9.53118 -0.0749766 7.17452 0.663655 6.20051 2.56212L0.732716 13.0907L1.25811 13.3633L6.7259 2.83471C7.56543 1.22121 9.55443 0.602703 11.1578 1.42777L11.3239 1.51619C12.9373 2.35853 13.558 4.34991 12.7357 5.95345L7.14796 16.7125C6.43565 18.0683 5.41282 19.6033 3.36571 18.5276C1.22694 17.4127 2.05836 15.6657 2.50629 14.8081L8.01316 4.18785C8.43656 3.36748 9.43605 3.06686 10.2464 3.47442L10.3108 3.50633C11.1311 3.93116 11.4328 4.93183 11.0267 5.74224L6.03403 15.4206L6.55943 15.6931L11.5866 5.9949C12.1544 4.90684 11.7249 3.56529 10.6369 2.99553L10.5081 2.93171C9.42008 2.36195 8.08015 2.79 7.5123 3.87807L1.94182 14.6272C1.05595 16.3596 1.43349 18.1688 3.08407 19.0358Z" fill="#494949"/>
</svg>
