<svg width="21" height="30" viewBox="0 0 21 30" fill="none" xmlns="http://www.w3.org/2000/svg">
<path d="M4.02105 29.2085C6.84382 30.7006 9.19803 29.622 10.9384 26.267L19.5062 9.74496C21.0155 6.83906 19.8869 3.24635 16.9964 1.75823L16.7435 1.62359C13.8379 0.10916 10.2494 1.23385 8.76636 4.12459L0.440724 20.1561L1.24072 20.5711L9.56635 4.53964C10.8447 2.08282 13.8733 1.14104 16.3147 2.39734L16.5675 2.53198C19.0242 3.81458 19.9693 6.84679 18.7173 9.28844L10.209 25.6709C9.12439 27.7353 7.56697 30.0726 4.44989 28.4347C1.19327 26.7371 2.45924 24.0769 3.14128 22.7711L11.5264 6.60002C12.1711 5.35087 13.693 4.89314 14.9269 5.5137L15.025 5.5623C16.274 6.20917 16.7334 7.73286 16.115 8.96684L8.51286 23.7037L9.31286 24.1188L16.9675 9.35156C17.8322 7.6948 17.1782 5.65208 15.5215 4.78452L15.3253 4.68734C13.6687 3.81978 11.6284 4.47157 10.7638 6.12833L2.28179 22.4956C0.932896 25.1335 1.50777 27.8884 4.02105 29.2085Z" fill="#494949"/>
</svg>
