<svg id="Layer_1" data-name="Layer 1" xmlns="http://www.w3.org/2000/svg" viewBox="0 0 512 512"><title>rar</title><path d="M128,0A32,32,0,0,0,96,32V480a32,32,0,0,0,32,32H448a32,32,0,0,0,32-32V128L352,0H128Z" style="fill:#e2e5e7"></path><path d="M384,128h96L352,0V96A32,32,0,0,0,384,128Z" style="fill:#b0b7bd"></path><polygon points="480 224 384 128 480 128 480 224" style="fill:#cad1d8"></polygon><path d="M416,416a16,16,0,0,1-16,16H48a16,16,0,0,1-16-16V256a16,16,0,0,1,16-16H400a16,16,0,0,1,16,16V416Z" style="fill:#a066aa"></path><path d="M400,432H96v16H400a16,16,0,0,0,16-16V416A16,16,0,0,1,400,432Z" style="fill:#cad1d8"></path><g style="isolation:isolate"><path d="M100.3,297.3q0-3,2.7-3h37.4a29.43,29.43,0,0,1,11.9,2.4,30.26,30.26,0,0,1,9.5,6.5,28.61,28.61,0,0,1,6.3,9.6,30.69,30.69,0,0,1,1.2,19.8,28.78,28.78,0,0,1-3,7.2,30.36,30.36,0,0,1-4.7,6,29.61,29.61,0,0,1-6.1,4.6l15.8,33.2a0.37,0.37,0,0,0,.1.3c0,0.1.1,0.2,0.1,0.3a2.35,2.35,0,0,1-.6,1.7,2.93,2.93,0,0,1-2.1.6H154a2.49,2.49,0,0,1-2.4-1.9l-13.8-30.3H118.7v29.6c0,1.7-.9,2.6-2.7,2.6H103a3.08,3.08,0,0,1-1.9-.6,2.48,2.48,0,0,1-.8-2V297.3Zm52.4,27a13.06,13.06,0,0,0-.9-4.7,14.06,14.06,0,0,0-2.6-4.2,12.44,12.44,0,0,0-4.1-3,11.78,11.78,0,0,0-5.3-1.2H118.6v26.2h21.6a12.53,12.53,0,0,0,5.3-1.1,10.5,10.5,0,0,0,3.9-2.9,11,11,0,0,0,2.4-4.2A13,13,0,0,0,152.7,324.3Z" style="fill:#fff"></path><path d="M218.9,296.4a4.43,4.43,0,0,1,1.2-1.5,3.84,3.84,0,0,1,2.4-.6h7.2a3.28,3.28,0,0,1,2.1.6,4.43,4.43,0,0,1,1.2,1.5l36.9,87.2V384a2.72,2.72,0,0,1-.6,1.7c-0.4.5-1.3,0.8-2.8,0.8H254.6a3,3,0,0,1-1.8-.4,3.56,3.56,0,0,1-1-1.5l-6.1-14.4H206.4l-6.1,14.4a2.24,2.24,0,0,1-2.3,1.9H185.1a2.93,2.93,0,0,1-2.1-.6,2.35,2.35,0,0,1-.6-1.7c0-.1,3.1-7.4,9.3-22S206.9,325.6,218.9,296.4Zm-6,56.7h26.3L226.1,321Z" style="fill:#fff"></path><path d="M284.1,297.3q0-3,2.7-3h37.4a29.43,29.43,0,0,1,11.9,2.4,30.26,30.26,0,0,1,9.5,6.5,28.61,28.61,0,0,1,6.3,9.6,30.69,30.69,0,0,1,1.2,19.8,28.79,28.79,0,0,1-3,7.2,30.36,30.36,0,0,1-4.7,6,29.61,29.61,0,0,1-6.1,4.6l15.8,33.2a0.37,0.37,0,0,0,.1.3c0,0.1.1,0.2,0.1,0.3a2.35,2.35,0,0,1-.6,1.7,2.93,2.93,0,0,1-2.1.6H337.8a2.49,2.49,0,0,1-2.4-1.9l-13.8-30.3H302.5v29.6c0,1.7-.9,2.6-2.7,2.6H287a3.08,3.08,0,0,1-1.9-.6,2.48,2.48,0,0,1-.8-2V297.3h-0.2Zm52.5,27a13.06,13.06,0,0,0-.9-4.7,14.06,14.06,0,0,0-2.6-4.2,12.44,12.44,0,0,0-4.1-3,11.78,11.78,0,0,0-5.3-1.2H302.5v26.2h21.6a12.53,12.53,0,0,0,5.3-1.1,10.5,10.5,0,0,0,3.9-2.9,11,11,0,0,0,2.4-4.2A13,13,0,0,0,336.6,324.3Z" style="fill:#fff"></path></g></svg>