<svg id="Layer_1" data-name="Layer 1" xmlns="http://www.w3.org/2000/svg" viewBox="0 0 512 512"><title>pdf</title><path d="M128,0A32.09,32.09,0,0,0,96,32V480a32.09,32.09,0,0,0,32,32H448a32.09,32.09,0,0,0,32-32V128L352,0H128Z" style="fill:#e2e5e7"></path><path d="M384,128h96L352,0V96A32.09,32.09,0,0,0,384,128Z" style="fill:#b0b7bd"></path><polygon points="480 224 384 128 480 128 480 224" style="fill:#cad1d8"></polygon><path d="M416,416a16,16,0,0,1-16,16H48a16,16,0,0,1-16-16V256a16,16,0,0,1,16-16H400a16,16,0,0,1,16,16V416Z" style="fill:#f15642"></path><path d="M400,432H96v16H400a16,16,0,0,0,16-16V416A16,16,0,0,1,400,432Z" style="fill:#cad1d8"></path><path d="M103.8,297.9a3.74,3.74,0,0,1,.9-2.6,3.38,3.38,0,0,1,2.5-1h34.7a28,28,0,0,1,11.6,2.4,29.13,29.13,0,0,1,15.1,16,30.6,30.6,0,0,1,2.2,11.2,29.47,29.47,0,0,1-2.1,11,30.51,30.51,0,0,1-5.9,9.4,28.51,28.51,0,0,1-9.1,6.5,27.09,27.09,0,0,1-11.4,2.4H122.2v29.7q0,3.3-3.3,3.3H107.2a3.74,3.74,0,0,1-2.5-.8,3.24,3.24,0,0,1-.9-2.4V297.9h0Zm48.5,26a12.75,12.75,0,0,0-1-5,13,13,0,0,0-2.7-4.3,12.08,12.08,0,0,0-4.1-3,11.3,11.3,0,0,0-5.2-1.1H122.1v26.8h17.2a12.74,12.74,0,0,0,5.2-1.1,11.18,11.18,0,0,0,4.1-3,12.06,12.06,0,0,0,2.7-4.3A13.93,13.93,0,0,0,152.3,323.9Z" style="fill:#fff"></path><path d="M266.8,340.5a46.58,46.58,0,0,1-1.7,12.5,43.21,43.21,0,0,1-4.8,11,47.29,47.29,0,0,1-7.4,9.3,50,50,0,0,1-9.5,7.1,53.3,53.3,0,0,1-11.3,4.5,47.84,47.84,0,0,1-12.6,1.6H191a3.4,3.4,0,0,1-1-.1,1.93,1.93,0,0,1-1-.3,1.58,1.58,0,0,1-.7-0.7,2.65,2.65,0,0,1-.3-1.4V297.4c0-2.1,1-3.1,3-3.1h28.5a49.47,49.47,0,0,1,23.9,6.3,51.85,51.85,0,0,1,9.6,7.1,43.88,43.88,0,0,1,7.4,9.3,50.3,50.3,0,0,1,4.8,11.1A49.53,49.53,0,0,1,266.8,340.5ZM206.3,311v58.5h11.8a32.78,32.78,0,0,0,11.7-2.1,27.89,27.89,0,0,0,9.6-6,28.94,28.94,0,0,0,6.5-9.2,30,30,0,0,0,0-23.5,29.38,29.38,0,0,0-6.5-9.3,29.71,29.71,0,0,0-9.6-6.1,32.94,32.94,0,0,0-11.7-2.3H206.3Z" style="fill:#fff"></path><path d="M286.6,297.3q0-3,2.7-3h58.9a2.74,2.74,0,0,1,2.3.9,3.51,3.51,0,0,1,.7,2.3v10.9a3.18,3.18,0,0,1-.8,2,2.87,2.87,0,0,1-2.3.9H304.9v24.4h33a3.17,3.17,0,0,1,2,.6,2.56,2.56,0,0,1,.8,2.1v11.2a3.61,3.61,0,0,1-.6,2,2.26,2.26,0,0,1-2,.9H304.9v31.4c0,1.7-.9,2.6-2.7,2.6H289.4a3.08,3.08,0,0,1-1.9-.6,2.48,2.48,0,0,1-.8-2V297.3h-0.1Z" style="fill:#fff"></path></svg>