<svg width="9" height="19" viewBox="0 0 9 19" fill="none" xmlns="http://www.w3.org/2000/svg">
<path fill-rule="evenodd" clip-rule="evenodd" d="M2.46714 18.225C2.75115 18.3197 5.57555 18.2724 6.06469 18.2566C6.22248 18.2408 6.15936 17.4834 6.17514 17.231C6.17514 16.8523 6.17514 16.4578 6.17514 16.0791C6.15936 15.306 6.17514 14.5328 6.17514 13.7596C6.17514 13.3021 6.11203 9.31003 6.22248 9.19958C6.39604 9.05757 8.24216 9.16802 8.65241 9.07335C8.81019 8.86822 8.81019 7.93728 8.84175 7.59014C8.87331 7.29035 9.0311 6.31206 8.90487 6.07538C8.76286 5.93337 7.21654 5.98071 6.83785 5.98071C6.7274 5.98071 6.30137 6.02805 6.2067 5.93337C6.11203 5.77559 6.17514 4.86042 6.19092 4.60796C6.19092 4.22927 6.15936 3.66123 6.39604 3.47189C6.77473 3.17209 8.33683 3.36144 8.93642 3.28254C9.01532 3.10897 9.01532 0.379249 8.93642 0.0952311C8.55773 0.0321161 7.84769 0.0794523 7.42166 0.0636736C6.08047 0.0636736 4.56571 0.0636735 3.57165 0.884169C2.51447 1.752 2.43558 3.0143 2.4198 4.40283C2.4198 4.71841 2.45136 5.68091 2.38824 5.90182C2.26201 6.10694 0.715695 5.87026 0.589465 6.04382C0.52635 6.26473 0.542129 8.97867 0.605244 9.12068C1.07861 9.23113 1.96222 9.05757 2.38824 9.19958C2.46714 9.81495 2.4198 10.8248 2.4198 11.4717C2.40402 12.3711 2.38824 18.1304 2.46714 18.225Z" fill="white"/>
<path fill-rule="evenodd" clip-rule="evenodd" d="M6.0646 18.2562C5.57546 18.272 2.75106 18.3193 2.46704 18.2247C2.4986 18.3036 2.48282 18.3193 2.62483 18.3351C2.68794 18.3509 2.7984 18.3509 2.86151 18.3509C3.00352 18.3509 3.16131 18.3509 3.3191 18.3509H5.67013C5.89104 18.3509 6.00149 18.3825 6.0646 18.2562Z" fill="white"/>
</svg>
