<svg width="14" height="14" viewBox="0 0 14 14" fill="none" xmlns="http://www.w3.org/2000/svg">
<path d="M0.0189543 4.68835C0.134644 6.17546 0.0462046 7.64687 0.0853004 9.13035C0.0882072 9.23935 0.17076 9.31122 0.261815 9.33186C0.291973 9.41637 0.364571 9.48425 0.473502 9.48112C0.778496 9.47233 1.08211 9.47756 1.38725 9.48119C1.69559 9.4849 2.08088 9.51172 2.35702 9.34843C2.37461 9.33804 2.38885 9.32423 2.40121 9.30933C2.4887 9.31573 2.58143 9.27336 2.59545 9.17925C2.71158 8.39711 2.64603 7.56323 2.665 6.77251C2.67655 6.28853 2.69588 5.80448 2.71361 5.32036C2.79864 5.31687 2.87705 5.34703 2.93874 5.44513C3.0391 5.60471 3.07304 5.81785 3.11242 5.99887C3.19062 6.35844 3.22484 6.72986 3.28182 7.09328C3.40405 7.87331 3.76434 8.49136 4.39642 8.95848C4.80199 9.25824 5.29454 9.42626 5.72693 9.68263C6.25887 9.99809 6.7233 10.421 7.16673 10.848C7.88746 11.542 8.47427 12.4635 9.28345 13.052C9.30924 13.0707 9.33606 13.0769 9.36251 13.0781C9.36825 13.0818 9.37319 13.0857 9.37951 13.0891C10.4703 13.6667 11.2312 12.2212 11.1201 11.3101C11.0543 10.7712 10.6788 10.3452 10.2729 10.0193C9.83581 9.66839 9.1655 9.40235 8.84728 8.9119C10.0238 8.79352 11.1896 9.18841 12.3727 9.10455C12.9978 9.06022 13.5763 8.7327 13.8319 8.14865C14.0043 7.75442 13.9609 7.3078 13.69 6.9741C13.6596 6.93675 13.6238 6.90651 13.5853 6.88064C13.9187 6.57725 14.0885 6.13811 13.9536 5.64802C13.8784 5.37522 13.668 5.12364 13.3984 5.02728C13.6669 4.68058 13.683 4.15888 13.4202 3.72076C13.2313 3.40573 12.9172 3.17116 12.5655 3.07218C12.4904 3.05103 12.3938 3.03926 12.2904 3.03955C12.5023 2.70723 12.5707 2.26104 12.4042 1.93454C12.2527 1.63725 11.9808 1.43356 11.6611 1.29083C11.6427 1.22405 11.5875 1.16962 11.4929 1.17013C11.4438 1.17049 11.3946 1.17195 11.3454 1.17245C10.9126 1.03758 10.439 0.984241 10.0678 0.950667C9.49862 0.89929 8.92264 0.94558 8.35204 0.92814C7.78202 0.910772 7.21912 0.881413 6.65107 0.95074C6.23024 1.00204 5.86921 1.13895 5.5377 1.39969C5.20858 1.65861 5.08228 2.08947 4.77118 2.38429C4.72939 2.36496 4.6839 2.3481 4.62351 2.34229C4.38116 2.31867 4.13467 2.32557 3.89159 2.32877C3.56007 2.33328 3.05342 2.27122 2.81012 2.44926C2.81193 2.39737 2.81455 2.34549 2.81608 2.29353C2.82676 1.91601 2.92595 1.31728 2.71768 0.974575C2.66725 0.891296 2.58353 0.876908 2.51421 0.905467C2.49357 0.865136 2.4568 0.833378 2.39568 0.824368C1.75089 0.729461 1.07455 0.983368 0.439129 0.789123C0.384409 0.772408 0.333976 0.776841 0.290447 0.794645C0.150994 0.756131 -0.0273361 0.871457 0.00674534 1.062C0.220103 2.25806 -0.07479 3.48356 0.0189543 4.68835ZM13.0926 4.65202C13.0997 4.58959 13.1006 4.52899 13.0976 4.46961C13.1224 4.44745 13.1434 4.42442 13.1588 4.40029C13.1593 4.43176 13.158 4.46278 13.1536 4.49302C13.1431 4.56423 13.1197 4.62251 13.0874 4.672C13.0888 4.6651 13.0918 4.65921 13.0926 4.65202Z" fill="white"/>
</svg>
