<svg width="20" height="19" viewBox="0 0 20 19" fill="none" xmlns="http://www.w3.org/2000/svg">
<path fill-rule="evenodd" clip-rule="evenodd" d="M9.45681 4.21609C12.4302 3.98619 14.8059 6.20858 15.0205 8.89079C15.0818 9.71844 14.9745 10.4388 14.7139 11.1438C14.4994 11.7109 14.0855 12.416 13.7483 12.7532C13.4725 13.029 13.4111 13.1057 13.074 13.3816C11.7252 14.5004 9.73269 14.7763 8.09271 14.1632C7.49497 13.9487 6.82058 13.5348 6.48339 13.1976C6.05424 12.7838 5.67107 12.3853 5.33388 11.7569C5.05799 11.1898 4.81276 10.5308 4.76678 9.77975C4.5522 6.79101 6.74395 4.41534 9.45681 4.21609ZM15.8328 2.16229C17.2122 1.87108 17.5801 3.89422 16.2773 4.17011C14.9438 4.46132 14.53 2.4535 15.8328 2.16229ZM19.1434 13.8414C19.1894 13.1517 19.1587 12.2627 19.1587 11.5423C19.1434 10.776 19.1587 9.99432 19.1587 9.21265C19.1587 8.35435 19.1894 5.24299 19.1127 4.62991C18.8062 2.19294 16.9057 0.307735 14.3921 0.0931592C13.7024 0.0318517 12.8134 0.0778323 12.093 0.0778323C11.3114 0.0778323 10.545 0.0778323 9.76334 0.0778323C8.87439 0.0931592 5.79368 0.0318517 5.18061 0.123813C2.69765 0.445677 0.843098 2.33088 0.643849 4.82916C0.582541 5.5342 0.628522 6.40783 0.628522 7.14352C0.628522 7.90987 0.628522 8.69154 0.628522 9.45788C0.628522 10.3162 0.582541 13.4735 0.659176 14.0406C0.843098 15.42 1.48683 16.4929 2.19186 17.152C3.98511 18.8226 5.42584 18.5927 7.67889 18.608H12.3383C13.028 18.5927 13.9476 18.654 14.6066 18.562C15.9861 18.3781 17.013 17.7497 17.7027 17.0447C18.3924 16.309 19.0208 15.2668 19.1434 13.8414Z" fill="white"/>
<path fill-rule="evenodd" clip-rule="evenodd" d="M6.80536 9.5813C7.05059 11.9416 9.47224 13.0452 11.3268 12.0796C12.3384 11.5431 13.0741 10.409 12.9668 9.12149C12.8901 8.21721 12.5376 7.61946 11.9399 7.03704C11.4647 6.57723 10.5911 6.17873 9.67149 6.27069C8.7672 6.34733 8.15413 6.68452 7.58703 7.2976C7.14255 7.77273 6.7134 8.64636 6.80536 9.5813Z" fill="white"/>
</svg>
