<svg width="23" height="23" viewBox="0 0 23 23" fill="none" xmlns="http://www.w3.org/2000/svg">
<path d="M20.0301 4.90073L18.4603 3.33314C18.2983 3.17106 18.0852 3.08984 17.8724 3.08984C17.6597 3.08984 17.4469 3.1707 17.2848 3.33278L16.0292 4.58484L18.7744 7.32544L20.0301 6.07373C20.3546 5.74958 20.3546 5.22381 20.0301 4.90073Z" fill="#464646"/>
<path d="M7.87811 12.7209L10.6237 15.4619L18.1868 7.91283L15.4412 5.17188L7.87811 12.7209Z" fill="#464646"/>
<path d="M7.28554 13.3076L6.6994 16.6326L10.0312 16.0482L7.28554 13.3076Z" fill="#464646"/>
<path d="M14.8756 18.1139H4.5234V7.76172H11.8291L13.6296 5.96484H3.88838C3.24906 5.96484 2.72617 6.48773 2.72617 7.12706V18.7489C2.72617 19.3882 3.24906 19.9111 3.88838 19.9111H15.5102C16.1495 19.9111 16.6724 19.3882 16.6724 18.7489V10.4398L14.8756 12.2334V18.1139Z" fill="#464646"/>
</svg>
