<svg width="16" height="16" viewBox="0 0 16 16" fill="none" xmlns="http://www.w3.org/2000/svg">
<g clip-path="url(#clip0)">
<path d="M4.26667 -0.400001L3.2 -1.46667C1.37143 -0.0952389 0.152381 2.0381 0 4.47619H1.52381C1.67619 2.41905 2.66667 0.666666 4.26667 -0.400001ZM14.4762 4.47619H16C15.8476 2.0381 14.7048 -0.0952389 12.8762 -1.46667L11.8095 -0.400001C13.3333 0.666666 14.3238 2.41905 14.4762 4.47619ZM12.9524 4.85714C12.9524 2.49524 11.3524 0.590476 9.14286 0.057142V-0.476192C9.14286 -1.08572 8.60952 -1.61905 8 -1.61905C7.39048 -1.61905 6.85714 -1.08572 6.85714 -0.476192V0.057142C4.64762 0.590476 3.04762 2.49524 3.04762 4.85714V9.04762L1.52381 10.5714V11.3333H14.4762V10.5714L12.9524 9.04762V4.85714ZM8 13.6191C8.07619 13.6191 8.22857 13.6191 8.30476 13.6191C8.8381 13.5429 9.21905 13.1619 9.37143 12.7048C9.44762 12.5524 9.52381 12.3238 9.52381 12.0952H6.47619C6.47619 12.9333 7.1619 13.6191 8 13.6191Z" fill="#222222"/>
</g>
<defs>
<clipPath id="clip0">
<rect width="16" height="16" fill="white"/>
</clipPath>
</defs>
</svg>
