<svg width="20" height="20" viewBox="0 0 20 20" fill="none" xmlns="http://www.w3.org/2000/svg">
<path fill-rule="evenodd" clip-rule="evenodd" d="M10 20C15.5228 20 20 15.5228 20 10C20 4.47715 15.5228 0 10 0C4.47715 0 0 4.47715 0 10C0 15.5228 4.47715 20 10 20ZM8.436 12.312V11.604H10.524C11.62 11.604 12.476 11.364 13.092 10.884C13.708 10.396 14.016 9.7 14.016 8.796C14.016 7.9 13.708 7.212 13.092 6.732C12.476 6.244 11.62 6 10.524 6H7.224V12.312H6V12.996H7.224V14.4H8.436V12.996H11.1V12.312H8.436ZM12.216 7.5C12.608 7.804 12.804 8.24 12.804 8.808C12.804 9.376 12.604 9.82 12.204 10.14C11.812 10.452 11.252 10.608 10.524 10.608H8.436V7.044H10.524C11.26 7.044 11.824 7.196 12.216 7.5Z" fill="#F3BC4A"/>
</svg>
