<svg id="Layer_1" data-name="Layer 1" xmlns="http://www.w3.org/2000/svg" viewBox="0 0 512 512"><title>zip</title><path d="M128,0A32.09,32.09,0,0,0,96,32V480a32.09,32.09,0,0,0,32,32H448a32.09,32.09,0,0,0,32-32V128L352,0H128Z" style="fill:#e2e5e7"></path><path d="M384,128h96L352,0V96A32.09,32.09,0,0,0,384,128Z" style="fill:#b0b7bd"></path><polygon points="480 224 384 128 480 128 480 224" style="fill:#cad1d8"></polygon><path d="M416,416a16,16,0,0,1-16,16H48a16,16,0,0,1-16-16V256a16,16,0,0,1,16-16H400a16,16,0,0,1,16,16V416Z" style="fill:#84bd5a"></path><path d="M400,432H96v16H400a16,16,0,0,0,16-16V416A16,16,0,0,1,400,432Z" style="fill:#cad1d8"></path><path d="M124.4,386.4a3,3,0,0,1-2.4-1,3.39,3.39,0,0,1-1-2.6v-9.3a3.36,3.36,0,0,1,.7-2.2l48.1-60H124.9a3.12,3.12,0,0,1-3.4-3.4V297.6a3.12,3.12,0,0,1,3.4-3.4h66.5a3.66,3.66,0,0,1,2.5.9,3.1,3.1,0,0,1,1.1,2.5v9.1a3.75,3.75,0,0,1-.1,1.1,3.45,3.45,0,0,1-.5,1.1l-48.2,60.4h45.5a3.65,3.65,0,0,1,2.4.8,3,3,0,0,1,1,2.5v10a3.59,3.59,0,0,1-1,2.4,3,3,0,0,1-2.4,1.2H124.4v0.2Z" style="fill:#fff"></path><path d="M215.5,297.1a2.57,2.57,0,0,1,2.7-2.7h12.5a3.46,3.46,0,0,1,2,.7,2.43,2.43,0,0,1,1.1,2v86.6q0,2.7-3,2.7H218.3a2.39,2.39,0,0,1-2.7-2.7V297.1h-0.1Z" style="fill:#fff"></path><path d="M263.1,297.9a3.74,3.74,0,0,1,.9-2.6,3.38,3.38,0,0,1,2.5-1h34.7a28,28,0,0,1,11.6,2.4,29.13,29.13,0,0,1,15.1,16,30.6,30.6,0,0,1,2.2,11.2,29.47,29.47,0,0,1-2.1,11,30.51,30.51,0,0,1-5.9,9.4,28.51,28.51,0,0,1-9.1,6.5,27.09,27.09,0,0,1-11.4,2.4H281.4v29.7q0,3.3-3.3,3.3H266.4a3.74,3.74,0,0,1-2.5-.8,3.24,3.24,0,0,1-.9-2.4V297.9h0.1Zm48.5,26a12.75,12.75,0,0,0-1-5,13.63,13.63,0,0,0-2.7-4.3,12.08,12.08,0,0,0-4.1-3,11.3,11.3,0,0,0-5.2-1.1H281.4v26.8h17.2a12.74,12.74,0,0,0,5.2-1.1,11.18,11.18,0,0,0,4.1-3A14.08,14.08,0,0,0,311.6,323.9Z" style="fill:#fff"></path></svg>