<svg version="1.1" id="Layer_1" xmlns="http://www.w3.org/2000/svg" xmlns:xlink="http://www.w3.org/1999/xlink" x="0px" y="0px" viewBox="0 0 512 512" style="enable-background:new 0 0 512 512;" xml:space="preserve">    <title>doc</title>    <path style="fill:#E2E5E7" d="M128,0c-17.7,0-32,14.3-32,32v448c0,17.7,14.3,32,32,32h320c17.7,0,32-14.3,32-32V128L352,0H128z"></path>    <path style="fill:#B0B7BD" d="M384,128h96L352,0v96C352,113.7,366.3,128,384,128z"></path>    <polygon style="fill:#CAD1D8" points="480,224 384,128 480,128 "></polygon>    <path style="fill:#154A9E" d="M416,416c0,8.8-7.2,16-16,16H48c-8.8,0-16-7.2-16-16V256c0-8.8,7.2-16,16-16h352c8.8,0,16,7.2,16,16V416z"></path>    <path style="fill:#CAD1D8" d="M400,432H96v16h304c8.8,0,16-7.2,16-16v-16C416,424.8,408.8,432,400,432z"></path>    <path style="fill:#FFFFFF" d="M163.5,340.5c0,4.2-0.6,8.4-1.7,12.5c-1.1,3.9-2.7,7.6-4.8,11c-2.1,3.4-4.6,6.5-7.4,9.3c-2.9,2.7-6.1,5.1-9.5,7.1c-3.6,1.9-7.4,3.4-11.3,4.5c-4.1,1.1-8.3,1.6-12.6,1.6H87.7c-0.3,0-0.7,0-1-0.1c-0.4,0-0.7-0.1-1-0.3c-0.3-0.2-0.5-0.4-0.7-0.7c-0.2-0.4-0.3-0.9-0.3-1.4v-86.6c0-2.1,1-3.1,3-3.1h28.5c8.4,0,16.6,2.2,23.9,6.3c3.5,2,6.7,4.4,9.6,7.1c2.9,2.8,5.4,5.9,7.4,9.3c2,3.5,3.7,7.2,4.8,11.1C163,332.1,163.5,336.3,163.5,340.5z M103,311v58.5h11.8c4,0,8-0.7,11.7-2.1c3.6-1.3,6.8-3.4,9.6-6c2.7-2.6,5-5.7,6.5-9.2c3.2-7.5,3.2-16,0-23.5c-1.5-3.5-3.7-6.7-6.5-9.3c-2.8-2.6-6-4.7-9.6-6.1c-3.7-1.5-7.7-2.3-11.7-2.3H103z"></path>    <path style="fill:#FFFFFF" d="M178.7,340.5c0-4.3,0.6-8.5,1.7-12.6c1.1-4,2.7-7.8,4.8-11.3c2.1-3.5,4.5-6.7,7.4-9.6c2.9-2.9,6.1-5.4,9.6-7.4c3.6-2,7.4-3.6,11.3-4.8c4.1-1.1,8.3-1.7,12.6-1.7c4.3,0,8.5,0.6,12.6,1.7c4,1.1,7.8,2.7,11.3,4.8c7,4.1,12.9,10,17,17c2,3.6,3.6,7.4,4.8,11.3c2.3,8.2,2.3,17,0,25.2c-1.1,4-2.7,7.8-4.8,11.3c-2,3.5-4.5,6.7-7.4,9.5c-2.9,2.9-6.1,5.3-9.6,7.4c-3.5,2.1-7.3,3.7-11.3,4.8c-4.1,1.1-8.3,1.7-12.6,1.7c-4.3,0-8.5-0.6-12.6-1.7c-4-1.1-7.8-2.7-11.3-4.8c-3.5-2.1-6.7-4.5-9.6-7.4c-2.8-2.9-5.3-6.1-7.4-9.5c-2.1-3.5-3.7-7.3-4.8-11.3C179.3,349,178.7,344.8,178.7,340.5z M197.1,340.5c0,4,0.7,8,2.1,11.7c5.7,14.8,22.3,22.2,37.1,16.5c0.4-0.2,0.8-0.3,1.2-0.5c3.4-1.5,6.5-3.7,9.1-6.4c2.6-2.8,4.7-6,6-9.6c1.4-3.7,2.2-7.7,2.2-11.7c0.1-4-0.7-8.1-2.2-11.8c-2.7-7.2-8.1-12.9-15.1-16.1c-7.4-3.2-15.8-3.2-23.2,0c-3.4,1.5-6.5,3.8-9.1,6.5c-2.6,2.8-4.7,6-6,9.6C197.8,332.5,197.1,336.5,197.1,340.5L197.1,340.5z"></path>    <path style="fill:#FFFFFF" d="M364.5,301c0.7,0.4,1.2,0.9,1.6,1.6c0.3,0.8,0.3,1.7-0.2,2.4l-6,10.2c-0.4,0.7-1.1,1.2-1.9,1.4c-0.8,0.1-1.6-0.1-2.2-0.6c-5.2-3.8-11.4-5.8-17.8-5.8c-4,0-8,0.8-11.6,2.4c-3.4,1.5-6.5,3.8-9.1,6.5c-2.6,2.8-4.7,6-6,9.6c-1.4,3.8-2.1,7.8-2.1,11.8c0,4,0.7,8,2.1,11.7c5.6,14.5,21.6,21.9,36.3,16.8c3-1,5.8-2.5,8.4-4.3c0.7-0.5,1.5-0.7,2.3-0.7c0.8,0.2,1.4,0.7,1.8,1.4l6.1,10.4c0.5,0.7,0.5,1.5,0.2,2.3c-0.4,0.7-0.9,1.2-1.6,1.5c-3.9,2.6-8.1,4.7-12.6,6c-8.7,2.7-18,2.8-26.8,0.4c-4-1.1-7.8-2.7-11.3-4.8c-3.5-2.1-6.7-4.5-9.6-7.4c-2.8-2.9-5.3-6.1-7.4-9.5c-2.1-3.5-3.7-7.3-4.8-11.3c-2.3-8.2-2.3-17,0-25.2c1.1-4,2.7-7.8,4.8-11.3c2.1-3.5,4.5-6.7,7.4-9.6c2.9-2.9,6.1-5.4,9.6-7.4c3.6-2,7.4-3.6,11.3-4.8c4.1-1.2,8.3-1.8,12.6-1.7c4.7,0,9.5,0.7,14,2.1C356.4,296.4,360.7,298.4,364.5,301z"></path></svg>