<svg id="Слой_1" data-name="Слой 1" xmlns="http://www.w3.org/2000/svg" viewBox="0 0 512 512">
                        <title>jpg</title>
                        <path d="M128,0A32.09,32.09,0,0,0,96,32V480a32.09,32.09,0,0,0,32,32H448a32.09,32.09,0,0,0,32-32V128L352,0H128Z" style="fill:#e2e5e7"></path>
                        <path d="M384,128h96L352,0V96A32.09,32.09,0,0,0,384,128Z" style="fill:#b0b7bd"></path>
                        <polygon points="480 224 384 128 480 128 480 224" style="fill:#cad1d8"></polygon>
                        <path d="M416,416a16,16,0,0,1-16,16H48a16,16,0,0,1-16-16V256a16,16,0,0,1,16-16H400a16,16,0,0,1,16,16V416Z" style="fill:#50bee8"></path>
                        <path d="M400,432H96v16H400a16,16,0,0,0,16-16V416A16,16,0,0,1,400,432Z" style="fill:#cad1d8"></path>
                        <path d="M126.8,386.9a26.89,26.89,0,0,1-11.6-2.5,25.38,25.38,0,0,1-9.3-7.2,2.57,2.57,0,0,1-.5-1.8,2.77,2.77,0,0,1,.3-1.3,4.44,4.44,0,0,1,.8-1.1l6.3-6.9a3.74,3.74,0,0,1,2.2-1.4,2.41,2.41,0,0,1,1.5.4,7.89,7.89,0,0,1,1.5,1.2,7.84,7.84,0,0,0,2,1.4,16.87,16.87,0,0,0,2.7,1.2,13.24,13.24,0,0,0,3.7.5,7.25,7.25,0,0,0,3.3-.7,11.23,11.23,0,0,0,2.8-1.8,10.15,10.15,0,0,0,1.9-2.7,7.25,7.25,0,0,0,.7-3.3V296.5a3.37,3.37,0,0,1,.8-2.3,3,3,0,0,1,2.4-.9H150a3.74,3.74,0,0,1,2.6.9,3.7,3.7,0,0,1,1,2.7v61.3a28.1,28.1,0,0,1-.1,2.9,24.58,24.58,0,0,1-.2,2.8,25.86,25.86,0,0,1-3,9,27.49,27.49,0,0,1-5.8,7.3,26.85,26.85,0,0,1-7.9,4.9A27.84,27.84,0,0,1,126.8,386.9Z" style="fill:#fff"></path>
                        <path d="M178.2,297a3.74,3.74,0,0,1,.9-2.6,3.38,3.38,0,0,1,2.5-1h34.7a28,28,0,0,1,11.6,2.4,29.13,29.13,0,0,1,15.1,16,30.6,30.6,0,0,1,2.2,11.2,29.47,29.47,0,0,1-2.1,11,30.51,30.51,0,0,1-5.9,9.4,28.51,28.51,0,0,1-9.1,6.5,27.09,27.09,0,0,1-11.4,2.4H196.6V382q0,3.3-3.3,3.3H181.6a3.74,3.74,0,0,1-2.5-.8,3.24,3.24,0,0,1-.9-2.4V297Zm48.5,26a12.75,12.75,0,0,0-1-5,13,13,0,0,0-2.7-4.3,12.08,12.08,0,0,0-4.1-3,11.3,11.3,0,0,0-5.2-1.1H196.5v26.8h17.2a12.74,12.74,0,0,0,5.2-1.1,11.18,11.18,0,0,0,4.1-3A14.08,14.08,0,0,0,226.7,323Z" style="fill:#fff"></path>
                        <path d="M323,315.1a29.63,29.63,0,0,0-17.8-5.8,27.68,27.68,0,0,0-11.6,2.4,28.51,28.51,0,0,0-9.1,6.5,27.89,27.89,0,0,0-6,9.6,32.93,32.93,0,0,0-2.1,11.8,32,32,0,0,0,2.1,11.7,28.29,28.29,0,0,0,26.7,18.4,38.18,38.18,0,0,0,5.7-.4c2-.2,4-0.6,6-1V347.7a2.88,2.88,0,0,1,.7-2,2.63,2.63,0,0,1,2-.8h11.2a3.47,3.47,0,0,1,2,.7,2.43,2.43,0,0,1,1.1,2v28.8a2.88,2.88,0,0,1-1.8,2.7,42.6,42.6,0,0,1-12.6,5.8,51.24,51.24,0,0,1-14.2,1.9,47.32,47.32,0,0,1-12.6-1.7,45.23,45.23,0,0,1-11.3-4.8,49.17,49.17,0,0,1-9.6-7.4,51.69,51.69,0,0,1-7.4-9.5,45.23,45.23,0,0,1-4.8-11.3,47.54,47.54,0,0,1,0-25.2,45.23,45.23,0,0,1,4.8-11.3,49.17,49.17,0,0,1,7.4-9.6,45.58,45.58,0,0,1,9.6-7.4,54.09,54.09,0,0,1,11.3-4.8,43.58,43.58,0,0,1,12.6-1.7,46.06,46.06,0,0,1,14,2.1,49.61,49.61,0,0,1,12.5,6,4.89,4.89,0,0,1,1.6,1.6,2.62,2.62,0,0,1-.2,2.4l-6,10.2a3.07,3.07,0,0,1-1.9,1.4A3.1,3.1,0,0,1,323,315.1Z" style="fill:#fff"></path>
                    </svg>