<svg width="21" height="17" viewBox="0 0 21 17" fill="none" xmlns="http://www.w3.org/2000/svg">
<path fill-rule="evenodd" clip-rule="evenodd" d="M10.726 5.80725C7.80568 5.80725 5.66144 4.79433 3.62244 3.17629L2.89892 2.54485C2.81999 2.47908 2.76737 2.40015 2.68845 2.32122L2.24118 1.88711C2.16225 1.82134 2.09648 1.74241 2.0307 1.65033L1.39927 0.939964C1.12302 1.15044 0.899388 2.00551 0.846769 2.30807C0.675756 3.45254 0.965163 4.4523 1.6229 5.33368C2.08332 5.95196 2.49112 6.14928 2.60952 6.28083C2.34642 6.28083 1.89916 6.17559 1.64921 6.10981C1.22826 6.00458 1.10987 5.92565 0.807305 5.82041C0.807305 6.97803 1.20195 7.80679 1.75445 8.46453C2.24118 9.04334 2.93839 9.49061 3.67506 9.71424C3.79345 9.74055 3.95131 9.76686 4.04339 9.80632C3.54351 9.93787 3.20148 9.99049 2.67529 9.96418C2.51743 9.95103 2.35957 9.91156 2.24118 9.89841C2.68845 11.2928 4.0697 12.3847 5.27995 12.9898C5.75352 13.2134 6.31918 13.3713 6.9243 13.3976C6.74013 13.5686 5.99031 14.0685 5.74037 14.2263C4.87215 14.792 3.81976 15.1603 2.75422 15.2919C2.08332 15.384 1.4782 15.3314 0.807305 15.3708C1.32034 15.8049 2.87261 16.318 3.60928 16.4758C4.67482 16.7258 6.02977 16.8442 7.21371 16.8178C11.5153 16.7389 15.1724 14.8052 17.2903 11.1876C18.4742 9.16174 18.9084 7.32006 18.9084 4.91272C19.3293 4.70225 20.2501 3.76825 20.5396 3.39992L21 2.82111L19.9213 3.2026C19.4872 3.32099 19.1451 3.37361 18.6716 3.43938C19.1188 3.16313 19.4345 2.87372 19.7371 2.5317C19.9476 2.30807 20.3948 1.65033 20.4869 1.26884C20.237 1.34776 19.5793 1.84765 18.1848 2.16336C17.7639 2.2686 17.9612 2.22914 17.5008 1.87396C14.8172 -0.138732 11.4759 1.29514 10.7918 3.87349C10.6471 4.426 10.5682 5.25475 10.726 5.80725Z" fill="white"/>
</svg>
