<svg width="16" height="16" viewBox="0 0 16 16" fill="none" xmlns="http://www.w3.org/2000/svg">
<path d="M15.8003 8.99687L15.1867 6.96875H13.7818C13.1574 6.96875 12.6165 6.56722 12.4357 5.96966L12.2889 5.48438H3.71103L3.56422 5.96972C3.38347 6.56722 2.84256 6.96875 2.21819 6.96875H0.813313L0.19972 8.99687C-0.159499 10.1842 0.0585009 11.4365 0.797876 12.4326C1.53719 13.4287 2.67269 14 3.91319 14H12.0868C13.3273 14 14.4628 13.4287 15.2022 12.4326C15.9415 11.4365 16.1595 10.1842 15.8003 8.99687Z" fill="#222222"/>
<path d="M1.23871 8.03125H2.21817C2.42477 8.03125 2.60702 7.896 2.66683 7.69825L3.01517 6.54688H12.9848L13.3331 7.69825C13.3929 7.896 13.5751 8.03125 13.7817 8.03125H14.7612C15.0757 8.03125 15.3009 7.72775 15.2099 7.42675L14.5779 5.33787C14.4583 4.94241 14.0938 4.67184 13.6806 4.67184H9.46367L10.6159 3.85041C10.7392 3.76244 10.8125 3.62028 10.8125 3.46875V2.24559C11.2259 2.06441 11.5156 1.65141 11.5156 1.17188C11.5156 0.525688 10.9899 0 10.3437 0C9.69758 0 9.17186 0.525688 9.17186 1.17188C9.17186 1.65144 9.46155 2.06441 9.87499 2.24559V3.22725L7.99999 4.564L6.12499 3.22725V2.24559C6.53842 2.06441 6.82811 1.65141 6.82811 1.17188C6.82811 0.525688 6.30239 0 5.65624 0C5.01008 0 4.48436 0.525688 4.48436 1.17188C4.48436 1.65144 4.77405 2.06441 5.18749 2.24559V3.46875C5.18749 3.62028 5.26074 3.76244 5.38411 3.85044L6.5363 4.67188H2.31933C1.90611 4.67188 1.54164 4.94241 1.42199 5.33791L0.790049 7.42678C0.698987 7.72775 0.924268 8.03125 1.23871 8.03125Z" fill="#222222"/>
</svg>
