<svg width="22" height="22" viewBox="0 0 22 22" fill="none" xmlns="http://www.w3.org/2000/svg">
<g clip-path="url(#clip0)">
<path d="M21.7097 15.6007C21.6833 15.5461 21.6587 15.5007 21.6358 15.4644C21.2571 14.8096 20.5335 14.006 19.4653 13.0533L19.4428 13.0315L19.4315 13.0208L19.42 13.0098H19.4086C18.9238 12.5661 18.6168 12.2678 18.4882 12.1151C18.253 11.8242 18.2003 11.5297 18.3289 11.2313C18.4197 11.0059 18.7609 10.5298 19.3516 9.80242C19.6623 9.41693 19.9084 9.10797 20.0902 8.8752C21.4009 7.20239 21.9691 6.13344 21.7948 5.66794L21.7271 5.55916C21.6816 5.49366 21.5642 5.43375 21.375 5.37911C21.1854 5.32459 20.943 5.31557 20.6475 5.35191L17.3749 5.37361C17.3219 5.35558 17.2462 5.35726 17.1475 5.37911C17.049 5.40097 16.9997 5.41194 16.9997 5.41194L16.9428 5.43925L16.8976 5.47208C16.8597 5.49378 16.818 5.53195 16.7725 5.58651C16.7273 5.64089 16.6894 5.70469 16.6592 5.77741C16.3029 6.65741 15.8978 7.47559 15.4431 8.2319C15.1628 8.68289 14.9054 9.07373 14.6702 9.40466C14.4355 9.73548 14.2385 9.97922 14.0795 10.1355C13.9203 10.2918 13.7766 10.4171 13.6476 10.5118C13.5188 10.6065 13.4204 10.6465 13.3523 10.6318C13.284 10.6172 13.2198 10.6027 13.1589 10.5882C13.0529 10.5227 12.9677 10.4336 12.9034 10.3209C12.8388 10.2082 12.7954 10.0663 12.7726 9.89539C12.75 9.72436 12.7367 9.57725 12.7328 9.45357C12.7293 9.33004 12.7309 9.15531 12.7386 8.92987C12.7465 8.70432 12.75 8.55171 12.75 8.4717C12.75 8.1953 12.7556 7.89532 12.7669 7.57168C12.7784 7.24805 12.7876 6.99163 12.7954 6.80272C12.8031 6.61362 12.8067 6.41356 12.8067 6.20264C12.8067 5.99172 12.7933 5.82632 12.7669 5.70626C12.7408 5.58636 12.7007 5.46997 12.6479 5.35714C12.5948 5.24442 12.517 5.15723 12.4149 5.09533C12.3127 5.03351 12.1856 4.98445 12.0343 4.948C11.6327 4.86076 11.1214 4.81358 10.5001 4.80624C9.09104 4.79172 8.18568 4.87907 7.78416 5.06816C7.62508 5.14806 7.48112 5.25722 7.3524 5.39531C7.216 5.55537 7.19697 5.64272 7.29544 5.65709C7.75005 5.72246 8.07189 5.87885 8.2613 6.12611L8.32956 6.25713C8.38266 6.35166 8.43567 6.51901 8.48873 6.75897C8.54171 6.99892 8.57589 7.26436 8.59094 7.55514C8.62875 8.08613 8.62875 8.54067 8.59094 8.91879C8.55301 9.29707 8.51719 9.59154 8.483 9.80246C8.44881 10.0134 8.3977 10.1843 8.32956 10.3152C8.2613 10.4461 8.21589 10.5261 8.19312 10.5551C8.1704 10.5841 8.15145 10.6024 8.13641 10.6096C8.03794 10.6459 7.93553 10.6643 7.82954 10.6643C7.72339 10.6643 7.59467 10.6133 7.44319 10.5115C7.29174 10.4096 7.13457 10.2697 6.97166 10.0915C6.80875 9.91323 6.62503 9.66414 6.42041 9.34418C6.21595 9.02421 6.00381 8.64605 5.7841 8.2097L5.60233 7.89325C5.4887 7.68967 5.33347 7.39324 5.13649 7.00423C4.9394 6.61507 4.76519 6.23863 4.61374 5.87499C4.5532 5.72227 4.46226 5.606 4.34106 5.52599L4.28419 5.49317C4.24637 5.46413 4.18568 5.43329 4.10241 5.40043C4.01903 5.36761 3.93202 5.34407 3.84104 5.32959L0.727411 5.3513C0.409238 5.3513 0.193355 5.42049 0.0796825 5.5587L0.0341894 5.62407C0.0114628 5.66049 0 5.71864 0 5.79869C0 5.8787 0.0227266 5.9769 0.0682196 6.09317C0.522752 7.11871 1.01705 8.10776 1.5511 9.06047C2.08516 10.0132 2.54924 10.7806 2.94308 11.3621C3.33699 11.944 3.73851 12.4932 4.14763 13.0094C4.55675 13.5258 4.82756 13.8567 4.96005 14.0021C5.09271 14.1477 5.19691 14.2566 5.27265 14.3294L5.5568 14.5911C5.73861 14.7657 6.0056 14.9748 6.35788 15.2184C6.71024 15.4621 7.10034 15.7021 7.52836 15.9386C7.95646 16.1748 8.4545 16.3675 9.02275 16.5166C9.59091 16.6658 10.1439 16.7257 10.6818 16.6968H11.9887C12.2537 16.6748 12.4545 16.5948 12.591 16.4567L12.6362 16.402C12.6666 16.3586 12.6951 16.2912 12.7213 16.2004C12.7479 16.1095 12.7611 16.0094 12.7611 15.9004C12.7534 15.5878 12.7782 15.306 12.8348 15.0551C12.8915 14.8043 12.956 14.6152 13.0282 14.4878C13.1004 14.3606 13.1818 14.2532 13.2725 14.1662C13.3633 14.079 13.428 14.0261 13.466 14.0079C13.5037 13.9896 13.5338 13.9772 13.5566 13.9698C13.7384 13.9116 13.9524 13.9679 14.1988 14.139C14.4451 14.3099 14.676 14.5209 14.8921 14.7717C15.108 15.0228 15.3674 15.3044 15.6704 15.6171C15.9735 15.9299 16.2386 16.1624 16.4658 16.3153L16.693 16.4462C16.8447 16.5336 17.0417 16.6136 17.2842 16.6863C17.5262 16.759 17.7383 16.7772 17.9204 16.7408L20.8293 16.6973C21.117 16.6973 21.3409 16.6515 21.4997 16.5608C21.6589 16.4699 21.7534 16.3697 21.7839 16.2608C21.8143 16.1518 21.8159 16.028 21.7896 15.8897C21.7627 15.7517 21.7362 15.6553 21.7097 15.6007Z" fill="white"/>
</g>
<defs>
<clipPath id="clip0">
<rect width="21.8254" height="20.9524" fill="white" transform="translate(0 0.305664)"/>
</clipPath>
</defs>
</svg>
