<svg width="16" height="25" viewBox="0 0 16 25" fill="none" xmlns="http://www.w3.org/2000/svg">
<path fill-rule="evenodd" clip-rule="evenodd" d="M2.99925 24.0041H3.5398C4.09536 23.7038 3.99025 24.0642 4.83111 22.9981L8.04436 19.2293C8.19452 19.3644 8.19452 19.3644 8.31464 19.5146L10.672 22.3224C10.7921 22.4576 10.8522 22.5176 10.9423 22.6227C11.0624 22.7579 11.1075 22.833 11.2126 22.9531L11.7531 23.5987C11.9333 23.7789 12.2636 23.854 12.5339 24.0041H13.1946C13.4649 23.824 13.7201 23.884 14.1105 23.4035C14.3357 23.1032 14.5309 22.6678 14.4258 22.1873C14.2757 21.5266 12.4739 19.3795 11.8432 18.5686L10.4918 16.8269C10.627 16.7067 11.0774 16.5416 11.2576 16.4665C11.5279 16.3464 11.7832 16.2413 12.0534 16.1212C12.594 15.8959 13.1045 15.6707 13.63 15.4154C14.2006 15.1301 14.7111 14.9349 15.0114 14.4995C15.3868 13.974 15.3117 13.1481 14.9664 12.6827C14.7111 12.3223 14.0955 11.8568 13.4048 12.037C12.3087 12.3373 11.1075 13.5836 8.04436 13.5986C6.6029 13.6136 5.47676 13.2833 4.29056 12.7728C3.79506 12.5625 3.22448 12.2022 2.72898 12.052C1.52776 11.6917 0.311526 13.1932 1.06229 14.4545C1.45268 15.1001 3.26952 15.7758 4.02029 16.1212C4.26053 16.2263 4.54582 16.3464 4.80108 16.4515C4.93621 16.5115 5.05633 16.5716 5.19147 16.6167L5.6119 16.8269L2.38363 20.9861C2.14338 21.2864 1.73797 21.8119 1.6629 22.2323C1.54277 22.878 1.94819 23.5236 2.42867 23.7939C2.63889 23.914 2.81907 23.914 2.99925 24.0041ZM7.62394 2.81767C9.29063 2.5474 10.5819 3.76363 10.8072 5.14503C11.0925 6.78169 9.92126 8.11804 8.53987 8.35829C6.84315 8.64358 5.52181 7.45737 5.28156 6.06096C4.99627 4.33421 6.21251 3.05792 7.62394 2.81767ZM8.50983 0.039859L7.7891 0.0248438C7.27859 -0.110293 6.01731 0.340163 5.6119 0.550376C0.296511 3.2381 2.09834 10.9859 7.90923 11.1962C10.9423 11.3013 13.4949 8.85379 13.645 5.94084C13.7051 4.64953 13.4348 3.68856 12.8192 2.66752C12.669 2.39725 12.3988 2.00685 12.2336 1.84168C11.7081 1.34618 11.3627 0.985817 10.672 0.640467C10.2066 0.415239 9.09543 -0.0652475 8.50983 0.039859Z" fill="white"/>
</svg>
