<svg width="14" height="14" viewBox="0 0 14 14" fill="none" xmlns="http://www.w3.org/2000/svg">
<path d="M0.0189543 9.31165C0.134644 7.82454 0.0462046 6.35313 0.0853004 4.86965C0.0882072 4.76065 0.17076 4.68878 0.261815 4.66814C0.291973 4.58363 0.364571 4.51575 0.473502 4.51888C0.778496 4.52767 1.08211 4.52244 1.38725 4.51881C1.69559 4.5151 2.08088 4.48828 2.35702 4.65157C2.37461 4.66196 2.38885 4.67577 2.40121 4.69067C2.4887 4.68427 2.58143 4.72664 2.59545 4.82075C2.71158 5.60289 2.64603 6.43677 2.665 7.22749C2.67655 7.71147 2.69588 8.19552 2.71361 8.67964C2.79864 8.68313 2.87705 8.65297 2.93874 8.55487C3.0391 8.39529 3.07304 8.18215 3.11242 8.00113C3.19062 7.64156 3.22484 7.27014 3.28182 6.90672C3.40405 6.12669 3.76434 5.50864 4.39642 5.04152C4.80199 4.74176 5.29454 4.57374 5.72693 4.31737C6.25887 4.00191 6.7233 3.57904 7.16673 3.15204C7.88746 2.45797 8.47427 1.53652 9.28345 0.948043C9.30924 0.929295 9.33606 0.923118 9.36251 0.921882C9.36825 0.918249 9.37319 0.914252 9.37951 0.910909C10.4703 0.333259 11.2312 1.7788 11.1201 2.68993C11.0543 3.22885 10.6788 3.65476 10.2729 3.98069C9.83581 4.33161 9.1655 4.59765 8.84728 5.0881C10.0238 5.20648 11.1896 4.81159 12.3727 4.89545C12.9978 4.93978 13.5763 5.2673 13.8319 5.85135C14.0043 6.24558 13.9609 6.6922 13.69 7.0259C13.6596 7.06325 13.6238 7.09349 13.5853 7.11936C13.9187 7.42275 14.0885 7.86189 13.9536 8.35198C13.8784 8.62478 13.668 8.87636 13.3984 8.97272C13.6669 9.31942 13.683 9.84112 13.4202 10.2792C13.2313 10.5943 12.9172 10.8288 12.5655 10.9278C12.4904 10.949 12.3938 10.9607 12.2904 10.9604C12.5023 11.2928 12.5707 11.739 12.4042 12.0655C12.2527 12.3628 11.9808 12.5664 11.6611 12.7092C11.6427 12.776 11.5875 12.8304 11.4929 12.8299C11.4438 12.8295 11.3946 12.8281 11.3454 12.8275C10.9126 12.9624 10.439 13.0158 10.0678 13.0493C9.49862 13.1007 8.92264 13.0544 8.35204 13.0719C7.78202 13.0892 7.21912 13.1186 6.65107 13.0493C6.23024 12.998 5.86921 12.861 5.5377 12.6003C5.20858 12.3414 5.08228 11.9105 4.77118 11.6157C4.72939 11.635 4.6839 11.6519 4.62351 11.6577C4.38116 11.6813 4.13467 11.6744 3.89159 11.6712C3.56007 11.6667 3.05342 11.7288 2.81012 11.5507C2.81193 11.6026 2.81455 11.6545 2.81608 11.7065C2.82676 12.084 2.92595 12.6827 2.71768 13.0254C2.66725 13.1087 2.58353 13.1231 2.51421 13.0945C2.49357 13.1349 2.4568 13.1666 2.39568 13.1756C1.75089 13.2705 1.07455 13.0166 0.439129 13.2109C0.384409 13.2276 0.333976 13.2232 0.290447 13.2054C0.150994 13.2439 -0.0273361 13.1285 0.00674534 12.938C0.220103 11.7419 -0.07479 10.5164 0.0189543 9.31165ZM13.0926 9.34798C13.0997 9.41041 13.1006 9.47101 13.0976 9.53039C13.1224 9.55255 13.1434 9.57558 13.1588 9.59971C13.1593 9.56824 13.158 9.53722 13.1536 9.50698C13.1431 9.43577 13.1197 9.37749 13.0874 9.328C13.0888 9.3349 13.0918 9.34079 13.0926 9.34798Z" fill="white"/>
</svg>
