<svg width="12" height="8" viewBox="0 0 12 8" fill="none" xmlns="http://www.w3.org/2000/svg">
<path fill-rule="evenodd" clip-rule="evenodd" d="M4.22495 0.992121C4.45191 0.76516 4.45191 0.397183 4.22495 0.170221C3.99799 -0.0567403 3.63001 -0.0567404 3.40305 0.170221L0.170238 3.40303C0.0540771 3.51919 -0.00263214 3.67229 0.000112534 3.82452C-0.00280952 3.97697 0.053896 4.13035 0.170226 4.24668L3.40304 7.47949C3.63 7.70645 3.99797 7.70645 4.22494 7.47949C4.4519 7.25252 4.4519 6.88455 4.22494 6.65759L1.93463 4.36728H11.4188C11.7398 4.36728 12 4.10708 12 3.78611C12 3.46513 11.7398 3.20493 11.4188 3.20493H2.01213L4.22495 0.992121Z" fill="#23B4BC"/>
</svg>
