<svg width="16" height="12" viewBox="0 0 16 12" fill="none" xmlns="http://www.w3.org/2000/svg">
<path d="M13.6066 0.0936661H6.29912C4.97941 0.0936661 3.90572 1.16736 3.90572 2.48715V2.82706H8.09561C9.75933 2.82706 11.1128 4.1806 11.1128 5.84425V7.31893L12.2743 8.48034C12.3746 8.58074 12.5074 8.63601 12.6482 8.63601C12.9412 8.63601 13.1797 8.39797 13.1797 8.10536V7.13013H13.6064C14.9262 7.13013 15.9999 6.05643 15.9999 4.73665V2.48707C16 1.16736 14.9263 0.0936661 13.6066 0.0936661Z" fill="#9B9B9B"/>
<path d="M8.09568 3.60126H3.90571H2.24307C2.04954 3.60126 1.86167 3.6258 1.68246 3.67186C0.714971 3.92081 0 4.79904 0 5.84433V8.35927C0 8.7464 0.0980802 9.11062 0.270708 9.42847C0.305233 9.49203 0.342777 9.55373 0.383031 9.61341C0.463617 9.73278 0.555427 9.84394 0.656913 9.94535C1.06286 10.3513 1.62363 10.6023 2.24307 10.6023H3.15296V11.4768C3.15296 11.4981 3.1549 11.5186 3.15769 11.5386C3.15838 11.5438 3.15924 11.5489 3.16009 11.554C3.16326 11.5723 3.16729 11.5902 3.17263 11.6073C3.17301 11.6086 3.17332 11.61 3.17371 11.6113C3.17959 11.6296 3.18695 11.6469 3.195 11.6637C3.19709 11.6681 3.19933 11.6724 3.20158 11.6767C3.20924 11.6912 3.21753 11.7054 3.22674 11.7188C3.22805 11.7206 3.22914 11.7227 3.23045 11.7246C3.2409 11.7394 3.25252 11.7531 3.26475 11.7663C3.26792 11.7697 3.27125 11.773 3.2745 11.7764C3.28534 11.7874 3.29664 11.7977 3.30856 11.8074C3.31088 11.8093 3.31305 11.8113 3.31545 11.8132C3.32939 11.8241 3.34409 11.834 3.35927 11.8431C3.36314 11.8454 3.36708 11.8476 3.37103 11.8497C3.38412 11.8571 3.39758 11.8638 3.41129 11.8697C3.41438 11.8711 3.41748 11.8727 3.42058 11.8739C3.43691 11.8806 3.45371 11.8861 3.47074 11.8908C3.47484 11.8919 3.47902 11.8928 3.4832 11.8938C3.49768 11.8973 3.51231 11.9001 3.52709 11.9021C3.53081 11.9026 3.53453 11.9033 3.53832 11.9037C3.55605 11.9056 3.57385 11.9065 3.59173 11.9062C3.59545 11.9061 3.59916 11.9058 3.60288 11.9056C3.61867 11.9049 3.63439 11.9035 3.6501 11.901C3.65327 11.9005 3.65637 11.9002 3.65954 11.8997C3.67727 11.8965 3.69484 11.8919 3.71234 11.8864C3.71629 11.8851 3.72016 11.8837 3.72411 11.8823C3.74028 11.8765 3.75623 11.87 3.77195 11.8621C3.7738 11.8611 3.77566 11.8604 3.77752 11.8595C3.7944 11.8507 3.81088 11.8402 3.82699 11.8288C3.83078 11.8261 3.83449 11.8233 3.83821 11.8206C3.85439 11.8083 3.87026 11.7952 3.88535 11.7801L5.06309 10.6024H8.09591C9.33473 10.6024 10.339 9.59816 10.339 8.35927V7.13021V5.84433C10.3388 4.60551 9.33449 3.60126 8.09568 3.60126Z" fill="#9B9B9B"/>
</svg>
