<svg width="18" height="18" viewBox="0 0 18 18" fill="none" xmlns="http://www.w3.org/2000/svg">
<path d="M8.61411 1.47505C8.61411 1.25848 8.79044 1.08215 9.007 1.08215C9.22371 1.08215 9.40004 1.25848 9.40004 1.47505V1.68764H10.4822V1.47505C10.4822 0.661789 9.8204 0 9.007 0C8.19374 0 7.53195 0.661789 7.53195 1.47505V1.68764H8.61411V1.47505Z" fill="#222222"/>
<path d="M13.3706 2.84587H11.5319V4.54504C11.5319 4.84387 11.2897 5.08612 10.9909 5.08612H7.02328C6.72446 5.08612 6.48221 4.84387 6.48221 4.54504V2.84587H4.64323C3.847 2.84587 3.19922 3.49365 3.19922 4.28989V16.556C3.19922 17.3522 3.847 18 4.64323 18H13.3706C14.1669 18 14.8147 17.3522 14.8147 16.556V4.28989C14.8147 3.49365 14.1669 2.84587 13.3706 2.84587ZM5.92712 13.7433H8.34178C8.64061 13.7433 8.88286 13.9856 8.88286 14.2844C8.88286 14.5833 8.64061 14.8255 8.34178 14.8255H5.92712C5.6283 14.8255 5.38605 14.5833 5.38605 14.2844C5.38605 13.9856 5.6283 13.7433 5.92712 13.7433ZM5.38605 11.3405C5.38605 11.0417 5.6283 10.7993 5.92712 10.7993H8.34178C8.64061 10.7993 8.88286 11.0417 8.88286 11.3405C8.88286 11.6392 8.64061 11.8816 8.34178 11.8816H5.92712C5.6283 11.8816 5.38605 11.6392 5.38605 11.3405ZM9.96309 7.38611C10.1743 7.17476 10.5169 7.17476 10.7283 7.38611L10.9734 7.63124L11.7044 6.90024C11.9156 6.68903 12.2583 6.68903 12.4696 6.90024C12.681 7.11145 12.681 7.45409 12.4696 7.66544L11.356 8.77904C11.2545 8.88052 11.1169 8.93752 10.9734 8.93752C10.8299 8.93752 10.6923 8.88052 10.5908 8.77904L9.96309 8.15131C9.75174 7.93996 9.75174 7.59732 9.96309 7.38611ZM9.96309 10.33C10.1743 10.1188 10.5169 10.1188 10.7283 10.33L10.9734 10.5753L11.7044 9.8443C11.9156 9.63295 12.2583 9.63295 12.4696 9.8443C12.681 10.0555 12.681 10.3981 12.4696 10.6095L11.356 11.723C11.2504 11.8287 11.1118 11.8816 10.9734 11.8816C10.835 11.8816 10.6964 11.8287 10.5908 11.723L9.96309 11.0952C9.75174 10.884 9.75174 10.5414 9.96309 10.33ZM9.96309 13.2741C10.1743 13.0627 10.5169 13.0627 10.7283 13.2741L10.9734 13.5192L11.7044 12.7882C11.9156 12.577 12.2583 12.577 12.4696 12.7882C12.681 12.9994 12.681 13.3421 12.4696 13.5534L11.356 14.667C11.2504 14.7726 11.1118 14.8255 10.9734 14.8255C10.835 14.8255 10.6964 14.7726 10.5908 14.667L9.96309 14.0393C9.75174 13.8279 9.75174 13.4854 9.96309 13.2741ZM8.34192 7.85536C8.64075 7.85536 8.883 8.09761 8.883 8.39644C8.883 8.69527 8.64075 8.93752 8.34192 8.93752H5.92712C5.6283 8.93752 5.38605 8.69527 5.38605 8.39644C5.38605 8.09761 5.6283 7.85536 5.92712 7.85536H8.34192Z" fill="#222222"/>
<path d="M7.56436 2.76979H10.4498V4.00397H7.56436V2.76979Z" fill="#222222"/>
</svg>
